# xmcd
#
# Track frame offsets:
#	150
#	11205
#	28601
#	42386
#	51881
#	74304
#	95630
#	116646
#	129385
#	142984
#	158677
#	169434
#	185315
#	199825
#	226193
#	251632
#	265329
#	279996
#	294876
#	316189
#
# Disc length: 4418 seconds
#
# Revision: 0
# Processed by: cddbd v1.5.1PL0 Copyright (c) Steve Scherf et al.
# Submitted via: dBpowerAMP V4.0
#
DISCID=1e114014
DTITLE=Louis Armstrong - 20 unforgettable hits
DYEAR=1995
DGENRE=Blues
TTITLE0=Uncle Satchmo's lullaby
TTITLE1=Cabaret
TTITLE2=C'est si bon
TTITLE3=High society
TTITLE4=Summertime
TTITLE5=Jeepers creepers
TTITLE6=Ain't misbehavin'
TTITLE7=St. Louis blues
TTITLE8=Honeysuckle rose
TTITLE9=Blueberry hill
TTITLE10=Hello Dolly !
TTITLE11=Mack the Knife
TTITLE12=Can anyone explain ?
TTITLE13=On the sunny side of the street
TTITLE14=Basin street blues
TTITLE15=You rascal you
TTITLE16=When it's sleepy time down South
TTITLE17=Dream a little dream of me
TTITLE18=Tiger rag
TTITLE19=When the Saints go marchin' in
EXTD=
EXTT0=
EXTT1=
EXTT2=
EXTT3=
EXTT4=
EXTT5=
EXTT6=
EXTT7=
EXTT8=
EXTT9=
EXTT10=
EXTT11=
EXTT12=
EXTT13=
EXTT14=
EXTT15=
EXTT16=
EXTT17=
EXTT18=
EXTT19=
PLAYORDER=
